<?xml version="1.0" standalone="no"?><!DOCTYPE svg PUBLIC "-//W3C//DTD SVG 1.1//EN" "http://www.w3.org/Graphics/SVG/1.1/DTD/svg11.dtd"><svg t="1669343903804" class="icon" viewBox="0 0 1024 1024" version="1.1" xmlns="http://www.w3.org/2000/svg" p-id="11425" xmlns:xlink="http://www.w3.org/1999/xlink" width="200" height="200"><path d="M256 896H128V704a32 32 0 0 1 32-32h64a32 32 0 0 1 32 32zM468.8 896h-128V576a32 32 0 0 1 32-32h64a32 32 0 0 1 32 32zM683.2 896h-128V688a32 32 0 0 1 32-32h64a32 32 0 0 1 32 32zM896 896h-128V448a32 32 0 0 1 32-32h64a32 32 0 0 1 32 32zM896 96H710.4a16 16 0 0 0-11.2 27.2l78.4 78.4-163.2 163.2a96.96 96.96 0 0 1-123.2 11.2l-41.6-28.8a158.08 158.08 0 0 0-204.8 17.6l-139.2 139.2a30.88 30.88 0 0 0 0 44.8 38.24 38.24 0 0 0 22.4 8 32 32 0 0 0 22.4-9.6l139.2-139.2a96.96 96.96 0 0 1 123.2-11.2l41.6 28.8a158.08 158.08 0 0 0 204.8-17.6l163.2-163.2 78.4 78.4a16 16 0 0 0 27.2-11.2V128a32 32 0 0 0-32-32z" p-id="11426"></path></svg>