<?xml version="1.0" standalone="no"?><!DOCTYPE svg PUBLIC "-//W3C//DTD SVG 1.1//EN" "http://www.w3.org/Graphics/SVG/1.1/DTD/svg11.dtd"><svg t="1669343841509" class="icon" viewBox="0 0 1024 1024" version="1.1" xmlns="http://www.w3.org/2000/svg" p-id="11291" xmlns:xlink="http://www.w3.org/1999/xlink" width="200" height="200"><path d="M96 368v528c0 17.6 14.4 32 32 32h768c17.6 0 32-14.4 32-32V368H96z m272 440c-88 0-160-72-160-160s72-160 160-160v64c-52.8 0-96 43.2-96 96s43.2 96 96 96 96-43.2 96-96h64c0 89.6-72 160-160 160z m33.6-193.6v-160c88 0 160 72 160 160h-160zM720 808h-96v-64h96v64z m96-128H624v-64h192v64z m0-128H624v-64h192v64zM896 96H128c-17.6 0-32 14.4-32 32v176h832V128c0-17.6-14.4-32-32-32z m-624 136h-64v-64h64v64z m128 0h-64v-64h64v64z m128 0h-64v-64h64v64z" fill="#737987" p-id="11292"></path></svg>