<?xml version="1.0" standalone="no"?><!DOCTYPE svg PUBLIC "-//W3C//DTD SVG 1.1//EN" "http://www.w3.org/Graphics/SVG/1.1/DTD/svg11.dtd"><svg class="icon" width="200px" height="200.00px" viewBox="0 0 1024 1024" version="1.1" xmlns="http://www.w3.org/2000/svg"><path fill="#3a84ff" d="M864 544v320H160V544h704m32-64H128c-17.6 0-32 14.4-32 32v384c0 17.6 14.4 32 32 32h768c17.6 0 32-14.4 32-32V512c0-17.6-14.4-32-32-32z"  /><path fill="#3a84ff" d="M160 416V160h320v256h64V128c0-17.6-14.4-32-32-32H128c-17.6 0-32 14.4-32 32v288h64z"  /><path fill="#3a84ff" d="M224 640h64v128h-64zM715.2 148.8l16-27.2-142.4-11.2 76.8 121.6 16-27.2c81.6 44.8 142.4 120 168 211.2h65.6c-25.6-115.2-100.8-211.2-200-267.2z"  /></svg>