<?xml version="1.0" standalone="no"?><!DOCTYPE svg PUBLIC "-//W3C//DTD SVG 1.1//EN" "http://www.w3.org/Graphics/SVG/1.1/DTD/svg11.dtd"><svg class="icon" width="200px" height="200.00px" viewBox="0 0 1024 1024" version="1.1" xmlns="http://www.w3.org/2000/svg"><path fill="#3a84ff" d="M608 544h256v320H608v64h288c17.6 0 32-14.4 32-32V512c0-17.6-14.4-32-32-32H608v64z"  /><path fill="#3a84ff" d="M160 160h320v704H160V160M96 128v768c0 17.6 14.4 32 32 32h384c17.6 0 32-14.4 32-32V128c0-17.6-14.4-32-32-32H128c-17.6 0-32 14.4-32 32z"  /><path fill="#3a84ff" d="M256 800v-64h128v64zM875.2 297.6l27.2-16 11.2 142.4-121.6-76.8 27.2-16c-44.8-81.6-120-142.4-211.2-168V96c115.2 27.2 211.2 102.4 267.2 201.6z"  /></svg>